<svg xmlns="http://www.w3.org/2000/svg" xmlns:xlink="http://www.w3.org/1999/xlink" preserveAspectRatio="xMidYMid" width="21.956" height="42.329" viewBox="0 0 513 989">
  <defs>
    <style>
      .cls-1 {
        fill: #acd373;
      }

      .cls-1, .cls-2, .cls-3, .cls-4, .cls-5 {
        fill-rule: evenodd;
      }

      .cls-2 {
        fill: #329160;
      }

      .cls-3 {
        fill: #a7c976;
      }

      .cls-4 {
        fill: #3cb878;
      }

      .cls-5 {
        stroke: #fff;
        stroke-width: 25px;
        fill: none;
      }

      .cls-6 {
        fill: #fff;
      }
    </style>
  </defs>
  <g>
    <path d="M95.000,484.000 L489.000,482.000 L432.000,865.000 L-0.000,835.000 L95.000,484.000 Z" class="cls-1"/>
    <path d="M0.000,835.000 L413.000,835.000 L486.000,989.000 C486.000,989.000 156.760,989.000 105.925,989.000 C101.672,989.000 100.801,988.338 99.000,987.000 C97.199,985.662 98.057,986.968 95.735,983.370 C77.850,955.651 0.000,835.000 0.000,835.000 Z" class="cls-2"/>
    <path d="M93.000,-0.000 L485.000,-0.000 L487.000,490.000 L93.000,490.000 L93.000,-0.000 Z" class="cls-3"/>
    <path d="M400.000,835.000 L484.454,490.022 C484.690,244.539 485.000,0.000 485.000,0.000 L512.988,26.062 L512.988,972.875 L485.000,989.000 L400.000,835.000 Z" class="cls-4"/>
    <path d="M254.382,592.605 C297.488,592.605 329.628,615.599 320.869,653.311 C310.316,698.740 272.917,727.025 229.811,727.025 C186.706,727.025 150.777,699.475 160.434,661.983 C173.864,609.840 223.748,592.605 254.382,592.605 Z" class="cls-5"/>
    <rect x="283.313" y="166.219" width="23.125" height="164.781" class="cls-6"/>
  </g>
</svg>
